# xmcd
# Copyright (C) 1995-1998 Ti Kan
#
# Track frame offsets:
#       150
#       18225
#       37650
#       54600
#       76950
#       102150
#       126300
#       141000
#       168802
#       186000
#       202050
#       215475
#       228600
#       245625
#
# Disc length: 3704 seconds
#
# Revision: 0
# Processed by: cddbd v1.5PL3 Copyright (c) Steve Scherf et al.
# Submitted via: CD-Transfer v1.0
#
DISCID=bc0e760e
DTITLE=Roland Zoss - Härzland
DYEAR=2004
DGENRE=
TTITLE0=D Sache Wo Singe
TTITLE1=Jede Jedi Weiss
TTITLE2=D Vrenele Vo Guggisbärg
TTITLE3=Strahlendi Stadt
TTITLE4=Hie Ir Frömdi
TTITLE5=Härzland
TTITLE6=Im Getto
TTITLE7=Walpurgisnacht
TTITLE8=Der Maa Im Lynige Chleid
TTITLE9=Sehnsucht Blau
TTITLE10=Im Winter Buddhist
TTITLE11=Längizyti
TTITLE12=Risige Vogel
TTITLE13=Geheimtrack
EXTD=
EXTT0=
EXTT1=
EXTT2=
EXTT3=
EXTT4=
EXTT5=
EXTT6=
EXTT7=
EXTT8=
EXTT9=
EXTT10=
EXTT11=
EXTT12=
EXTT13=
PLAYORDER=
